<svg viewBox="0 0 128 128" xmlns="http://www.w3.org/2000/svg"><path d="M28.94 31.04c-2.17 0-3.55 1.77-3.9 3.9l-7.82 38.41c-.25 2.15 1.74 3.91 3.9 3.91h29.54a20.52 20.52 0 0 1-1.36-4.89 3.52 3.52 0 0 1 4.8-3.78l12.66 5.13c1.06.42 2.1-.03 2.54-1.12a3.52 3.52 0 0 1 .01-.02l1.33-3.23a1.92 1.92 0 0 0-1.11-2.57l-13.87-5.6a3.52 3.52 0 0 1-1.3-5.63c.35-.38.62-.62.75-.74a20.58 20.58 0 0 1 29.1 0 20.43 20.43 0 0 1 5.55 18.14l4.3 4.31h12.81c2.17 0 4.15-1.76 3.91-3.9l-7.81-38.41c-.33-2.14-1.74-3.9-3.9-3.9zM69.63 52.3c-4.37 0-8.7 1.66-12.03 5-.2.2-.44.41-.63.62l13.88 5.6a5.5 5.5 0 0 1 3.06 7.15l-1.34 3.25a5.47 5.47 0 0 1-7.13 3.06L52.8 71.86A17.03 17.03 0 0 0 74.23 85.8l35.34 35.34a7.72 7.72 0 0 0 10.93 0l.75-.75a7.72 7.72 0 0 0 0-10.94L86.04 74.2a17.08 17.08 0 0 0-16.4-21.9zm-48.5 28.9a3.9 3.9 0 0 0-3.91 3.92v7.93a3.9 3.9 0 0 0 3.9 3.9H80.4l-7.45-7.45a20.42 20.42 0 0 1-20.11-8.3zm76.88 0 12.68 12.7c.06-.28.1-.56.1-.85v-7.93a3.9 3.9 0 0 0-3.92-3.91zm-73.07 4.73h9.56c.72 0 1.31.56 1.31 1.28v3.72c0 .72-.59 1.31-1.31 1.31h-9.56c-.72 0-1.32-.59-1.32-1.31V87.2c0-.72.6-1.28 1.32-1.28zm90.13 24.87z"/></svg>