<svg width="32" height="32" viewBox="0 0 32 32" xmlns="http://www.w3.org/2000/svg"><path d="M26.901 16.436q1.937 1.062 2.984 2.594t1.125 3.155q.078 1.625-.328 3.125t-1.219 2.812q-1.03 1.688-2.5 2.703-1.468 1.016-3.171 1.156-1.703.14-3.484-.797-.406-.218-.672-.64-.266-.422-.406-.875t-.188-1.219q-.046-.765-.046-1.296t.015-1.563q.016-1.031.016-1.593-.031-2.438-.407-4.344-.78.344-1.593.344-.75 0-1.469-.281-2 2.312-3.312 3.156-1.625 1.03-3.265 1.109-1.64.078-2.937-.656-1.297-.735-2.281-1.797-.985-1.062-1.703-2.375-.875-1.656-1.047-3.328-.172-1.671.468-3.14.641-1.468 2.11-2.406.5-.219.968-.25.47-.031 1.188.235.718.265 1.343.609t1.453.86q.828.515 1.563.983.734.47 1.609.953.875.485 1.625.797.312-.75.906-1.343-1.219-3.563-1.219-5.5 0-1.656.563-2.984.562-1.328 1.484-2.172.922-.843 2.125-1.421 1.203-.578 2.406-.813Q20.808 0 22.026 0q3 0 5 1.515 2 1.516 2 4.203 0 .906-1.032 1.844-1.03.937-2.359 1.656-1.328.718-3.171 1.765-1.844 1.047-2.938 1.922.844.687 1.219 1.656 4.25.812 6.156 1.875zm-9.89-2.437q-.828 0-1.406.593t-.578 1.422q0 .828.578 1.406t1.406.578 1.422-.578q.594-.578.594-1.406t-.594-1.422Q17.84 14 17.011 14z"/></svg>