<svg viewBox="0 0 576 576" xmlns="http://www.w3.org/2000/svg"><path d="M576 336v96c0 26.51-21.49 48-48 48H48c-26.51 0-48-21.49-48-48v-96c0-26.51 21.49-48 48-48h480c26.51 0 48 21.49 48 48zm-48-80a79.557 79.557 0 0 1 30.777 6.165L462.25 117.374A48.003 48.003 0 0 0 422.311 96H153.689a48 48 0 0 0-39.938 21.374L17.223 262.165A79.557 79.557 0 0 1 48 256Zm-48 96c-17.673 0-32 14.327-32 32 0 17.673 14.327 32 32 32 17.673 0 32-14.327 32-32 0-17.673-14.327-32-32-32zm-96 0c-17.673 0-32 14.327-32 32 0 17.673 14.327 32 32 32 17.673 0 32-14.327 32-32 0-17.673-14.327-32-32-32z"/></svg>