<svg viewBox="0 0 640 640" xmlns="http://www.w3.org/2000/svg"><path d="M640 194.94V160c0-17.67-14.33-32-32-32H32c-17.67 0-32 14.33-32 32v34.94c18.6 6.61 32 24.19 32 45.06s-13.4 38.45-32 45.06V384h640v-98.94c-18.6-6.61-32-24.19-32-45.06s13.4-38.45 32-45.06zM224 320h-64V192h64zm128 0h-64V192h64zm128 0h-64V192h64zM0 512h64v-26.67c0-8.84 7.16-16 16-16s16 7.16 16 16V512h128v-26.67c0-8.84 7.16-16 16-16s16 7.16 16 16V512h128v-26.67c0-8.84 7.16-16 16-16s16 7.16 16 16V512h128v-26.67c0-8.84 7.16-16 16-16s16 7.16 16 16V512h64v-96H0Z"/></svg>