<svg width="32" height="32" viewBox="0 0 16 16" xmlns="http://www.w3.org/2000/svg"><path d="M5.633 10.816c0-.653-.531-1.184-1.184-1.184H2.082c-.654 0-1.184.531-1.184 1.184v2.367c0 .653.53 1.184 1.184 1.184h2.367c.653 0 1.184-.531 1.184-1.184v-2.367zm9.469 0c0-.653-.53-1.184-1.184-1.184h-2.367c-.653 0-1.184.531-1.184 1.184v2.367c0 .653.531 1.184 1.184 1.184h2.367c.654 0 1.184-.531 1.184-1.184v-2.367zm-4.735-8.724c0-.653-.53-1.183-1.183-1.183H6.816c-.653 0-1.183.53-1.183 1.183V4.46c0 .653.53 1.183 1.183 1.183h2.368c.653 0 1.183-.53 1.183-1.183V2.092z"/><path d="M8.5 7.189h3.464a1.27 1.27 0 0 1 1.271 1.271v4.04h-1V8.658a.471.471 0 0 0-.47-.469h-7.53a.468.468 0 0 0-.47.469V12.5h-1V8.46a1.27 1.27 0 0 1 1.271-1.271H7.5V3.098h1v4.091z"/></svg>