<svg viewBox="0 0 24 24" xmlns="http://www.w3.org/2000/svg"><circle cx="12" cy="12" r="1.5"/><path d="M21.9 10.3 21 7.8a2.3 2.3 0 0 0-2.9-1.5l-.3.1a1.7 1.7 0 0 1-1.6-.3h-.1a1.8 1.8 0 0 1-.7-1.5v-.2a2.4 2.4 0 0 0-.7-1.7 2.3 2.3 0 0 0-1.6-.7h-2.5a2.3 2.3 0 0 0-2.3 2.3v.3A2 2 0 0 1 7.6 6a2 2 0 0 1-1.9.4 2.1 2.1 0 0 0-1.6 0A2.2 2.2 0 0 0 2.9 8l-.8 2.6a2.3 2.3 0 0 0 1.5 3h.2a1.8 1.8 0 0 1 1 1.2l.1.1a2 2 0 0 1-.2 1.9 2.4 2.4 0 0 0 .5 3.3l2 1.6a2.3 2.3 0 0 0 1.4.4 2 2 0 0 0 .4 0 2.3 2.3 0 0 0 1.5-1l.2-.3a1.8 1.8 0 0 1 1.4-.8 1.8 1.8 0 0 1 1.5.8l.2.2a2.2 2.2 0 0 0 3.2.5l2-1.5a2.4 2.4 0 0 0 .5-3.3l-.3-.3a2 2 0 0 1-.2-1.7 1.9 1.9 0 0 1 1.2-1.3h.2a2.4 2.4 0 0 0 1.5-3zM12 15.5a3.5 3.5 0 1 1 3.5-3.5 3.5 3.5 0 0 1-3.5 3.5z"/></svg>