<svg width="32" height="32" viewBox="0 0 16 16" xmlns="http://www.w3.org/2000/svg"><path d="m 8.0000001,-7e-8 c -1.662,0 -3,1.33800007 -3,3.00000007 v 6.375 c -0.615,0.703 -1,1.6134 -1,2.625 0,2.216 1.784,4 4,4 C 10.216,16 12,14.216 12,12 12,10.9884 11.615,10.078 11,9.375 V 3 C 11,1.338 9.6620001,-7e-8 8.0000001,-7e-8 Z m 0,1 C 9.1080001,0.99999993 9.9999999,1.8921 9.9999999,3 V 9.7754 C 10.6101,10.3238 11,11.1113 11,12 c 0,1.662 -1.3379999,3 -2.9999999,3 -1.662,0 -3,-1.338 -3,-3 0,-0.8887 0.3899,-1.6762 1,-2.2246 V 3 c 0,-1.1079 0.892,-2.00000007 2,-2.00000007 z M 7.0000001,5 v 5.2754 c -0.5958,0.3456 -1,0.9836 -1,1.7246 0,1.108 0.892,2 2,2 1.108,0 1.9999998,-0.892 1.9999998,-2 0,-0.741 -0.4041998,-1.379 -0.9999998,-1.7246 V 5 Z" style="opacity:1;fill-opacity:1;stroke:none;stroke-width:2;stroke-linecap:round;stroke-linejoin:round;stroke-miterlimit:4;stroke-dasharray:none;stroke-dashoffset:0;stroke-opacity:1"/></svg>