<svg  width="32" height="32" viewBox="0 0 111.8 122.9" xmlns="http://www.w3.org/2000/svg"><path fill-rule="evenodd" d="M55.7 0c20.9 13.2 39.7 19.5 55.9 18 2.8 57.1-18.3 90.8-55.7 104.9C20 109.7-1.5 77.4.1 17c19 1 37.6-3 55.6-17.1zM20.1 44.8h7.1l5 15.8 4.9-15.8H44l-8.2 22h-7.3zm25.6 0H57c2.4 0 4.3.6 5.5 1.8a6.6 6.6 0 0 1 1.8 5c0 2.2-.6 4-2 5.2-1.3 1.2-3.3 1.8-6 1.8h-3.8v8.2h-6.8zm6.8 9.4h1.7c1.3 0 2.2-.3 2.7-.7.5-.5.8-1 .8-1.8 0-.6-.2-1.2-.7-1.7s-1.3-.7-2.6-.7h-2v4.9zm15-9.4h6.3L82 57V44.8h6.4v22H82l-8.2-12v12h-6.4zM55.6 7c18.5 11.7 35.1 17.3 49.5 16 2.5 50.5-16.2 80.4-49.3 92.8C23.8 104.2 5 75.6 6.4 22.2c16.8 1 33.3-2.7 49.2-15.1z" clip-rule="evenodd"/></svg>