<svg viewBox="0 0 16 16" xmlns="http://www.w3.org/2000/svg"><path d="M8 1.992c-2.617 0-5.238.934-7.195 2.809l-.496.48A.999.999 0 1 0 1.69 6.723l.5-.477c3.086-2.957 8.532-2.957 11.618 0l.5.477a.999.999 0 1 0 1.383-1.441l-.497-.485C13.238 2.926 10.617 1.992 8 1.992zM7.969 6c-1.57.012-3.13.629-4.207 1.813l-.5.55a.994.994 0 0 0 .066 1.414c.195.18.453.274.719.258a.994.994 0 0 0 .695-.328l.496-.547c1.278-1.402 4.16-1.496 5.524.004l.5.543c.175.2.425.316.691.328a.99.99 0 0 0 .723-.258 1 1 0 0 0 .063-1.414l-.5-.547C11.116 6.582 9.534 5.988 7.968 6zM8 10a2 2 0 1 0-.001 4A2 2 0 0 0 8 10zm0 0"/></svg>